<?xml version="1.0" encoding="UTF-8"?>
<svg id="Layer_2" data-name="Layer 2" xmlns="http://www.w3.org/2000/svg" viewBox="0 0 325.51 308.78">
  <defs>
    <style>
      .cls-1 {
        fill: #060419;
      }
    </style>
  </defs>
  <g id="Layer_1-2" data-name="Layer 1">
    <g>
      <path class="cls-1" d="M283.19,145.14H42.6c-6.13,0-11.14-5.04-11.14-11.21v-17.09c0-19.33,15.59-35.02,34.81-35.02h192.97c19.21,0,34.81,15.69,34.81,35.02v17.09c.28,6.16-4.73,11.21-10.86,11.21Z"/>
      <path class="cls-1" d="M232.51,63.32H93.28c-6.13,0-11.42-5.04-11.42-11.49C81.87,23.26,104.98,0,133.38,0h59.03c28.4,0,51.51,23.26,51.51,51.84,0,6.44-5.01,11.49-11.42,11.49Z"/>
      <path class="cls-1" d="M294.33,163.63H31.47c-17.26,0-31.47,14.29-31.47,31.66s14.2,31.66,31.47,31.66h93.28c3.34-17.93,18.93-31.66,37.87-31.66s34.81,13.73,38.15,31.66h93.28c17.26,0,31.47-14.29,31.47-31.66s-13.92-31.66-31.19-31.66Z"/>
      <path class="cls-1" d="M282.91,245.45h-81.59v63.32h61.26c17.26,0,31.47-14.29,31.47-31.66v-20.17c.28-6.16-4.73-11.49-11.14-11.49Z"/>
      <path class="cls-1" d="M42.6,245.45c-6.13,0-11.42,5.04-11.42,11.49v20.17c0,17.37,14.2,31.66,31.47,31.66h61.26v-63.32c.28,0-81.31,0-81.31,0Z"/>
    </g>
  </g>
</svg>